<svg width="32" height="32" xmlns="http://www.w3.org/2000/svg" xmlns:xlink="http://www.w3.org/1999/xlink" version="1.1">
 <!-- Generator: Sketch 63.1 (92452) - https://sketch.com -->
 <title>icon-fav</title>
 <desc>Created with Sketch.</desc>
 <defs>
  <path id="path-1" d="m16.277,9.49709c0.9581,-0.95855 2.25782,-1.49709 3.61309,-1.49709c1.35527,0 2.65499,0.53854 3.61309,1.49709c0.95828,0.95783 1.49682,2.25755 1.49682,3.61282c0,1.35527 -0.53854,2.65499 -1.49696,3.61295l-6.94752,6.94753c-0.30692,0.30692 -0.80454,0.30692 -1.11146,0l-6.94753,-6.94753c-1.99538,-1.99538 -1.99538,-5.23052 0.00001,-7.22591c1.99537,-1.99537 5.23052,-1.99537 7.2259,0l0.27735,0.27735l0.27721,-0.27721zm-0.27721,12.50611l5.55872,-5.55872l0.83321,-0.8332c0.6636,-0.6633 1.03644,-1.56311 1.03644,-2.50137c0,-0.93826 -0.37284,-1.83807 -1.03644,-2.50137c-0.66356,-0.66386 -1.56337,-1.0367 -2.50163,-1.0367c-0.93826,0 -1.83807,0.37284 -2.5015,1.03657l-0.83307,0.83308c-0.30692,0.30692 -0.80454,0.30692 -1.11146,0l-0.83307,-0.83308c-1.38154,-1.38154 -3.62146,-1.38154 -5.003,0c-1.38154,1.38154 -1.38154,3.62146 0,5.003l6.3918,6.39179z"/>
 </defs>
 <g>
  <title>Layer 1</title>
  <g fill-rule="evenodd" fill="none" id="GIFOS">
   <g id="00-UI-Kit">
    <g id="icon-fav">
     <rect rx="6" height="32" width="32" y="0" x="0" opacity="0.7" fill-rule="nonzero" fill="#FFFFFF" id="Rectangle"/>
     <mask fill="#572EE5" id="mask-2">
      <use id="svg_1" xlink:href="#path-1"/>
     </mask>
     <use id="svg_2" x="0" y="0" xlink:href="#path-1" fill-rule="nonzero" fill="#572EE5" fill-opacity="0.7"/>
    </g>
   </g>
  </g>
  <path id="svg_8" d="m16.1875,22.5l-8.4375,-7.9375l1.125,-4.3125l2.875,-1.25l2.5,0.625l1.6875,1.5l2.6875,-1.9375l2.5625,-0.0625l1.9375,1.5625l0.875,1.875l0,1.6875l-7.8125,8.25z" opacity="NaN" stroke="#8473e6" fill="#8473e6"/>
 </g>
</svg>